<svg width="15" height="8" viewBox="0 0 15 8" fill="none" xmlns="http://www.w3.org/2000/svg">
<mask id="path-1-inside-1" fill="white">
<path fill-rule="evenodd" clip-rule="evenodd" d="M0.857241 4.48987C0.656147 4.19384 0.656148 3.80616 0.857241 3.51013C2.29636 1.39167 4.72539 0 7.47946 0C10.2335 0 12.6626 1.39167 14.1017 3.51014C14.3028 3.80616 14.3028 4.19385 14.1017 4.48987C12.6626 6.60833 10.2335 8 7.47946 8C4.72539 8 2.29636 6.60833 0.857241 4.48987Z"/>
</mask>
<path d="M14.1017 3.51014L13.2745 4.07206L14.1017 3.51014ZM14.1017 4.48987L13.2745 3.92794L14.1017 4.48987ZM1.68443 4.07206C2.94535 2.21591 5.07056 1 7.47946 1V-1C4.38021 -1 1.64737 0.567426 0.0300537 2.94821L1.68443 4.07206ZM7.47946 1C9.88835 1 12.0136 2.21591 13.2745 4.07206L14.9289 2.94821C13.3115 0.567429 10.5787 -1 7.47946 -1V1ZM13.2745 3.92794C12.0136 5.78409 9.88835 7 7.47946 7V9C10.5787 9 13.3115 7.43257 14.9289 5.05179L13.2745 3.92794ZM7.47946 7C5.07056 7 2.94535 5.78409 1.68443 3.92794L0.0300536 5.05179C1.64737 7.43257 4.38021 9 7.47946 9V7ZM13.2745 4.07206C13.2452 4.0289 13.2452 3.97111 13.2745 3.92794L14.9289 5.05179C15.3604 4.41659 15.3604 3.58342 14.9289 2.94821L13.2745 4.07206ZM0.0300537 2.94821C-0.401457 3.58342 -0.401457 4.41658 0.0300536 5.05179L1.68443 3.92794C1.71375 3.9711 1.71375 4.0289 1.68443 4.07206L0.0300537 2.94821Z" fill="currentColor" mask="url(#path-1-inside-1)"/>
<circle cx="7.47937" cy="4" r="3.5" stroke="currentColor"/>
<circle cx="7.47937" cy="4" r="1" fill="currentColor"/>
</svg>
