<svg width="24" height="24" viewBox="0 0 24 24" fill="none" xmlns="http://www.w3.org/2000/svg">
<path fill-rule="evenodd" clip-rule="evenodd" d="M11.9999 2.43668C15.1149 2.43668 15.4849 2.44668 16.7149 2.50334C19.8766 2.64834 21.3516 4.14834 21.4982 7.28668C21.5532 8.51668 21.5649 8.88501 21.5649 12C21.5649 15.115 21.5532 15.485 21.4982 16.715C21.3516 19.8517 19.8799 21.355 16.7149 21.4983C15.4849 21.555 15.1166 21.5667 11.9999 21.5667C8.88492 21.5667 8.51492 21.5533 7.28658 21.4983C4.11492 21.3533 2.64825 19.8467 2.50325 16.715C2.44825 15.4833 2.43492 15.115 2.43492 12C2.43492 8.88501 2.44825 8.51668 2.50325 7.28668C2.64825 4.14668 4.12158 2.64834 7.28658 2.50334C8.51658 2.44834 8.88492 2.43668 11.9999 2.43668ZM6.00825 12C6.00825 15.31 8.69159 17.9917 11.9999 17.9917C15.3083 17.9917 17.9916 15.3083 17.9916 12C17.9916 8.69168 15.3083 6.01001 11.9999 6.01001C8.69159 6.01001 6.00825 8.69168 6.00825 12ZM16.8283 5.77334C16.8283 6.54668 17.4549 7.17334 18.2283 7.17334C19.0016 7.17334 19.6283 6.54501 19.6283 5.77334C19.6283 5.00001 19.0016 4.37334 18.2283 4.37334C17.4549 4.37334 16.8283 5.00001 16.8283 5.77334ZM11.9999 15.8883C14.1466 15.8883 15.8883 14.1483 15.8883 12C15.8883 9.85168 14.1466 8.11168 11.9999 8.11168C9.85325 8.11168 8.11158 9.85168 8.11158 12C8.11158 14.1483 9.85325 15.8883 11.9999 15.8883ZM16.8116 23.5967C21.0433 23.4017 23.4049 21.0517 23.5966 16.81C23.6533 15.5667 23.6666 15.1683 23.6666 12C23.6666 8.83168 23.6533 8.43501 23.5966 7.19001C23.4066 2.95834 21.0533 0.60001 16.8116 0.40501C15.5666 0.346677 15.1683 0.333344 11.9999 0.333344C8.83159 0.333344 8.43492 0.346677 7.18992 0.40501C2.95159 0.598344 0.598252 2.95001 0.403252 7.19001C0.346585 8.43501 0.333252 8.83168 0.333252 12C0.333252 15.1683 0.346585 15.5667 0.403252 16.81C0.598252 21.0483 2.94992 23.4017 7.18992 23.5967C8.43492 23.6533 8.83159 23.6667 11.9999 23.6667C15.1683 23.6667 15.5666 23.6533 16.8116 23.5967Z" fill="currentColor"/>
</svg>
