<svg width="136" height="31" viewBox="0 0 136 31" fill="none" xmlns="http://www.w3.org/2000/svg">
<g clip-path="url(#clip0)">
<path fill-rule="evenodd" clip-rule="evenodd" d="M14.8018 0.0867313C17.9453 0.0121932 21.0333 0.922413 23.6339 2.68998C26.2344 4.45754 28.2172 6.99398 29.305 9.9443C30.3927 12.8946 30.5309 16.1112 29.7002 19.144C29.3326 20.4861 27.9466 21.2761 26.6045 20.9085C25.2623 20.5409 24.4723 19.1549 24.8399 17.8127C25.393 15.7935 25.301 13.6519 24.5768 11.6875C23.8525 9.72318 22.5324 8.03449 20.8011 6.85774C19.0698 5.68098 17.0139 5.07503 14.9213 5.12465C12.8286 5.17428 10.8038 5.87699 9.13022 7.13448C7.45662 8.39198 6.21796 10.1414 5.58765 12.1378C4.95734 14.1343 4.96692 16.2779 5.61506 18.2686C6.26319 20.2594 7.51744 21.9976 9.20222 23.2401C10.887 24.4826 12.918 25.1671 15.011 25.1981C16.4024 25.2186 17.5137 26.3632 17.4932 27.7547C17.4726 29.1461 16.328 30.2574 14.9366 30.2368C11.7926 30.1904 8.74184 29.1621 6.21121 27.2958C3.68059 25.4295 1.79675 22.8187 0.823286 19.8287C-0.150178 16.8387 -0.164569 13.6192 0.782124 10.6206C1.72882 7.62206 3.58924 4.9945 6.10308 3.10567L7.61665 5.12008L6.10308 3.10567C8.61692 1.21683 11.6584 0.161269 14.8018 0.0867313Z" fill="#121920"/>
<path d="M26.4991 24.9706C26.4991 27.0804 24.7887 28.7908 22.6789 28.7908C20.569 28.7908 18.8586 27.0804 18.8586 24.9706C18.8586 22.8607 20.569 21.1504 22.6789 21.1504C24.7887 21.1504 26.4991 22.8607 26.4991 24.9706Z" fill="#F95A59"/>
<path fill-rule="evenodd" clip-rule="evenodd" d="M60.8326 24.1173H55.8529L55.1492 23.1971C54.1749 23.576 53.3089 23.8466 52.5511 24.0631C51.7933 24.2255 50.9814 24.3338 50.0613 24.3338C47.0301 24.3338 44.6485 23.576 42.9706 22.1145C41.1844 20.599 40.3184 18.2715 40.3184 15.2945C40.3184 12.2634 41.1303 9.93591 42.7 8.36622C44.3238 6.79653 46.7595 5.98462 50.0613 5.98462C53.2548 5.98462 55.6905 6.85066 57.3684 8.5286C58.8299 9.99004 59.5335 11.8845 59.5335 14.1578C59.5335 15.8358 59.4794 17.0807 59.317 17.8385C59.1005 19.0293 58.5592 20.166 57.8015 21.1944L60.8326 24.1173ZM55.1492 15.1321C55.1492 13.5083 54.8245 12.2093 54.1208 11.1808C53.2548 9.88178 51.8475 9.23226 50.0071 9.23226C48.2751 9.23226 46.9219 9.7194 46.0558 10.7478C45.1898 11.7221 44.7568 13.1835 44.7568 15.078C44.7568 17.189 45.2439 18.7587 46.2724 19.7329C47.1925 20.599 48.5457 21.032 50.3319 21.032C51.9557 21.032 53.1465 20.5449 53.9584 19.5706C54.7703 18.5421 55.1492 17.0807 55.1492 15.1321Z" fill="#F95A59"/>
<path fill-rule="evenodd" clip-rule="evenodd" d="M79.6152 18.5421C79.6152 20.1118 79.0739 21.4109 78.0455 22.4934C77.0171 23.576 75.7181 24.0631 74.0942 24.0631H61.645V20.8696H71.9833C72.6869 20.8696 73.2823 20.7072 73.7154 20.3825C74.2566 20.0036 74.5273 19.5164 74.5273 18.8669C74.5273 17.3513 73.4447 16.5936 71.3338 16.5936H66.1375C64.622 16.5936 63.3229 16.1064 62.1862 15.1863C61.0496 14.2661 60.5083 13.0753 60.5083 11.6139C60.5083 10.0442 61.0496 8.74511 62.1862 7.77082C63.2688 6.79653 64.7302 6.30939 66.5706 6.30939H78.5327V9.34051H67.9237C67.4366 9.34051 66.9494 9.55702 66.5164 9.93591C65.9752 10.3148 65.7586 10.8019 65.7586 11.3432C65.7586 11.9386 65.9752 12.4799 66.4623 12.8588C66.9494 13.2918 67.4907 13.4542 68.1402 13.4542H73.8777C75.6639 13.4542 77.0712 13.9413 78.0997 14.8615C79.1281 15.7817 79.6152 17.0266 79.6152 18.5421Z" fill="#F95A59"/>
<path fill-rule="evenodd" clip-rule="evenodd" d="M100.075 15.1322C100.075 18.5963 99.1008 21.032 97.2064 22.5476C95.6367 23.7384 93.3633 24.3338 90.4404 24.3338C87.1387 24.3338 84.703 23.6301 83.1333 22.277C81.4012 20.7614 80.5352 18.3257 80.5352 14.9698C80.5352 12.2093 81.2929 10.0442 82.8626 8.52863C84.5406 6.85068 87.0304 6.03877 90.3863 6.03877C94.067 6.03877 96.611 6.85068 98.1265 8.42037C99.4256 9.82768 100.075 12.0469 100.075 15.1322ZM95.5284 15.0239C95.5284 13.2918 95.0954 11.8845 94.2835 10.8561C93.3633 9.71943 91.956 9.12403 90.1698 9.12403C88.3836 9.12403 87.0304 9.71943 86.1103 10.9644C85.3525 11.9928 84.9736 13.346 84.9736 14.9698C84.9736 16.8642 85.2984 18.2715 85.8938 19.1917C86.7598 20.4366 88.2754 21.0862 90.6028 21.0862C92.5514 21.0862 93.9046 20.4908 94.6624 19.2458C95.2578 18.3798 95.5284 16.9184 95.5284 15.0239Z" fill="#F95A59"/>
<path fill-rule="evenodd" clip-rule="evenodd" d="M117.883 16.6477H105.65V24.009H101.266V13.1294C101.266 12.4799 101.374 11.7221 101.645 10.9102C102.132 9.44877 103.052 8.36622 104.405 7.60844C105.975 6.74241 108.573 6.30939 112.145 6.30939C119.777 6.30939 127.409 6.30939 135.041 6.30939V9.28639H128.438V24.009H124.324V9.28639C120.102 9.28639 116.096 9.23226 111.875 9.23226C110.251 9.23226 109.114 9.34051 108.465 9.5029C107.328 9.77353 106.57 10.4231 106.083 11.3432C105.704 12.0469 105.542 12.8047 105.542 13.6707H117.883V16.6477Z" fill="#F95A59"/>
</g>
<defs>
<clipPath id="clip0">
<rect width="135.041" height="30.3184" fill="white"/>
</clipPath>
</defs>
</svg>
