<svg width="25" height="24" viewBox="0 0 25 24" fill="none" xmlns="http://www.w3.org/2000/svg">
<path fill-rule="evenodd" clip-rule="evenodd" d="M12.4596 13C8.38476 13 5.01386 16.0589 4.52149 20.002C4.45306 20.55 4.90734 21 5.45963 21C6.01191 21 6.45089 20.5489 6.54226 20.0042C7.01801 17.1682 9.49056 15 12.4596 15C15.4287 15 17.9012 17.1682 18.377 20.0042C18.4684 20.5489 18.9073 21 19.4596 21C20.0119 21 20.4662 20.55 20.3978 20.002C19.9054 16.0589 16.5345 13 12.4596 13Z" fill="currentColor"/>
<path d="M12.46 11C14.666 11 16.46 9.206 16.46 7C16.46 4.794 14.666 3 12.46 3C10.254 3 8.45996 4.794 8.45996 7C8.45996 9.206 10.254 11 12.46 11" stroke="currentColor" stroke-width="2"/>
</svg>
