<svg xmlns="http://www.w3.org/2000/svg" xmlns:xlink="http://www.w3.org/1999/xlink"><defs><symbol fill="none" viewBox="0 0 11 8" id="icon-apply"><path fill-rule="evenodd" clip-rule="evenodd" d="M10.678.335c.43.446.43 1.17 0 1.616l-5.5 5.714a1.071 1.071 0 01-1.556 0l-3.3-3.428a1.175 1.175 0 010-1.617 1.071 1.071 0 011.556 0L4.4 5.24 9.122.336a1.071 1.071 0 011.556 0z" fill="currentColor" /></symbol><symbol fill="none" viewBox="0 0 20 14" id="icon-burger-menu"><rect width="20" height="2" rx="1" fill="currentColor" /><rect y="6" width="20" height="2" rx="1" fill="currentColor" /><rect y="12" width="20" height="2" rx="1" fill="currentColor" /></symbol><symbol fill="none" viewBox="0 0 12 12" id="icon-close"><path fill-rule="evenodd" clip-rule="evenodd" d="M7.414 6l4.293-4.293A.999.999 0 1010.293.293L6 4.586 1.707.293A.999.999 0 10.293 1.707L4.586 6 .293 10.293a.999.999 0 101.414 1.414L6 7.414l4.293 4.293a.997.997 0 001.414 0 .999.999 0 000-1.414L7.414 6z" fill="currentColor" /></symbol><symbol fill="none" viewBox="0 0 14 12" id="icon-comment"><path d="M2.351 8.805l.018-.188-.112-.153a4.688 4.688 0 01-.927-2.78C1.33 2.883 3.934.5 7.268.5c3.334 0 5.938 2.383 5.938 5.184 0 2.802-2.604 5.184-5.938 5.184a6.606 6.606 0 01-2.443-.459l-.222-.088-.208.118c-.88.498-1.994.79-2.7.939.112-.209.208-.44.29-.686.178-.533.3-1.172.366-1.887z" stroke="currentColor" /></symbol><symbol fill="none" viewBox="0 0 6 10" id="icon-cursor-right"><path fill-rule="evenodd" clip-rule="evenodd" d="M6 5a.997.997 0 01-.293.707l-4 4A.999.999 0 11.293 8.293l3.305-3.305-3.18-3.293a1 1 0 011.44-1.39l3.861 4A.997.997 0 016 5z" fill="currentColor" /></symbol><symbol fill="none" viewBox="0 0 15 8" id="icon-eye"><path d="M14.102 3.51l-.828.562.828-.562zm0 .98l-.828-.562.828.562zM1.684 4.072A6.992 6.992 0 017.48 1v-2A8.992 8.992 0 00.03 2.948l1.654 1.124zM7.48 1a6.992 6.992 0 015.795 3.072l1.655-1.124A8.992 8.992 0 007.479-1v2zm5.795 2.928A6.992 6.992 0 017.48 7v2c3.1 0 5.833-1.567 7.45-3.948l-1.655-1.124zM7.48 7a6.992 6.992 0 01-5.795-3.072L.03 5.052A8.992 8.992 0 007.48 9V7zm5.795-2.928a.13.13 0 010-.144l1.655 1.124a1.871 1.871 0 000-2.104l-1.655 1.124zM.03 2.948a1.87 1.87 0 000 2.104l1.654-1.124a.13.13 0 010 .144L.03 2.948z" fill="currentColor" mask="url(#icon-eye_a)" /><circle cx="7.479" cy="4" r="3.5" stroke="currentColor" /><circle cx="7.479" cy="4" r="1" fill="currentColor" /></symbol><mask id="icon-eye_a" fill="#fff"><path fill-rule="evenodd" clip-rule="evenodd" d="M.857 4.49a.871.871 0 010-.98A7.992 7.992 0 017.48 0a7.992 7.992 0 016.623 3.51.87.87 0 010 .98A7.992 7.992 0 017.479 8 7.992 7.992 0 01.857 4.49z" /></mask><symbol fill="none" viewBox="0 0 14 12" id="icon-heart"><g clip-path="url(#icon-heart_clip0)"><path d="M6.84 10.57l-.01-.011-.012-.01C5.136 9.089 3.785 7.9 2.85 6.784c-.93-1.11-1.396-2.088-1.396-3.12 0-1.674 1.312-2.975 3.04-2.975a3.4 3.4 0 012.52 1.153l.378.44.379-.44A3.4 3.4 0 0110.289.69c1.729 0 3.041 1.301 3.041 2.974 0 1.033-.466 2.012-1.396 3.121C10.999 7.9 9.648 9.09 7.966 10.55l-.012.01-.01.01-.552.541-.551-.54z" stroke="currentColor" /></g><defs></defs></symbol><clipPath id="icon-heart_clip0"><path fill="#fff" transform="translate(.954 .19)" d="M0 0h12.876v11.621H0z" /></clipPath><symbol fill="none" viewBox="0 0 20 20" id="icon-important"><path fill-rule="evenodd" clip-rule="evenodd" d="M9 14a1 1 0 102 0 1 1 0 00-2 0zm0-3a1 1 0 002 0V6a1 1 0 00-2 0v5zm1-9c-4.411 0-8 3.589-8 8s3.589 8 8 8 8-3.589 8-8-3.589-8-8-8m0 18C4.477 20 0 15.523 0 10S4.477 0 10 0c5.522 0 10 4.477 10 10s-4.478 10-10 10" fill="currentColor" /></symbol><symbol fill="none" viewBox="0 0 24 24" id="icon-instagram"><path fill-rule="evenodd" clip-rule="evenodd" d="M12 2.437c3.115 0 3.485.01 4.715.066 3.162.145 4.637 1.645 4.783 4.784.055 1.23.067 1.598.067 4.713s-.012 3.485-.067 4.715c-.146 3.137-1.618 4.64-4.783 4.783-1.23.057-1.598.069-4.715.069-3.115 0-3.485-.014-4.713-.069-3.172-.145-4.639-1.651-4.784-4.783-.055-1.232-.068-1.6-.068-4.715 0-3.115.013-3.483.068-4.713.145-3.14 1.619-4.639 4.784-4.784 1.23-.055 1.598-.066 4.713-.066zM6.008 12a5.992 5.992 0 1011.983 0 5.992 5.992 0 00-11.983 0zm10.82-6.227a1.4 1.4 0 102.8 0 1.4 1.4 0 00-2.8 0zM12 15.888a3.888 3.888 0 100-7.776 3.888 3.888 0 000 7.776zm4.812 7.709c4.231-.195 6.593-2.545 6.785-6.787.056-1.243.07-1.642.07-4.81 0-3.168-.014-3.565-.07-4.81-.19-4.232-2.544-6.59-6.785-6.785C15.567.347 15.168.333 12 .333S8.435.347 7.19.405C2.952.598.598 2.95.403 7.19.347 8.435.333 8.832.333 12c0 3.168.014 3.567.07 4.81.195 4.238 2.547 6.592 6.787 6.787 1.245.056 1.642.07 4.81.07 3.168 0 3.567-.014 4.812-.07z" fill="currentColor" /></symbol><symbol fill="none" viewBox="0 0 136 31" id="icon-logo"><g clip-path="url(#icon-logo_clip0)"><path fill-rule="evenodd" clip-rule="evenodd" d="M14.802.087A15.076 15.076 0 0129.7 19.144a2.52 2.52 0 11-4.86-1.331A10.04 10.04 0 0014.92 5.125a10.037 10.037 0 00-9.306 13.144 10.038 10.038 0 009.396 6.93 2.52 2.52 0 11-.074 5.038A15.075 15.075 0 01.782 10.62a15.078 15.078 0 015.321-7.515L7.617 5.12 6.103 3.106a15.076 15.076 0 018.699-3.02z" fill="#121920" /><path d="M26.5 24.97a3.82 3.82 0 11-7.641 0 3.82 3.82 0 017.64 0z" fill="#F95A59" /><path fill-rule="evenodd" clip-rule="evenodd" d="M60.833 24.117h-4.98l-.704-.92c-.974.379-1.84.65-2.598.866-.758.163-1.57.27-2.49.27-3.03 0-5.413-.757-7.09-2.218-1.787-1.516-2.653-3.843-2.653-6.82 0-3.032.812-5.36 2.382-6.929 1.624-1.57 4.06-2.381 7.361-2.381 3.194 0 5.63.866 7.307 2.544 1.462 1.461 2.165 3.355 2.165 5.629 0 1.678-.054 2.923-.216 3.68-.217 1.191-.758 2.328-1.516 3.356l3.032 2.923zm-5.684-8.985c0-1.624-.325-2.923-1.028-3.951-.866-1.3-2.274-1.949-4.114-1.949-1.732 0-3.085.487-3.951 1.516-.866.974-1.3 2.436-1.3 4.33 0 2.111.488 3.68 1.516 4.655.92.866 2.274 1.299 4.06 1.299 1.624 0 2.815-.487 3.626-1.461.812-1.029 1.191-2.49 1.191-4.439zM79.615 18.542c0 1.57-.541 2.869-1.57 3.951-1.028 1.083-2.327 1.57-3.95 1.57h-12.45V20.87h10.338c.704 0 1.3-.163 1.732-.488.542-.378.812-.866.812-1.515 0-1.516-1.082-2.273-3.193-2.273h-5.197c-1.515 0-2.814-.488-3.95-1.408-1.137-.92-1.679-2.11-1.679-3.572 0-1.57.542-2.869 1.678-3.843 1.083-.974 2.544-1.462 4.385-1.462h11.962v3.032h-10.61c-.486 0-.974.216-1.407.595-.54.379-.757.866-.757 1.407 0 .596.216 1.137.703 1.516.487.433 1.029.595 1.678.595h5.738c1.786 0 3.193.487 4.222 1.407 1.028.92 1.515 2.166 1.515 3.681zM100.075 15.132c0 3.464-.974 5.9-2.869 7.416-1.57 1.19-3.843 1.786-6.766 1.786-3.301 0-5.737-.704-7.307-2.057-1.732-1.516-2.598-3.951-2.598-7.307 0-2.76.758-4.926 2.328-6.441 1.678-1.678 4.167-2.49 7.523-2.49 3.681 0 6.225.812 7.74 2.381 1.3 1.408 1.949 3.627 1.949 6.712zm-4.547-.108c0-1.732-.433-3.14-1.245-4.168-.92-1.137-2.327-1.732-4.113-1.732-1.786 0-3.14.595-4.06 1.84-.757 1.029-1.136 2.382-1.136 4.006 0 1.894.324 3.301.92 4.222.866 1.245 2.381 1.894 4.709 1.894 1.948 0 3.302-.595 4.06-1.84.595-.866.865-2.328.865-4.222zM117.883 16.648H105.65v7.361h-4.384v-10.88c0-.65.108-1.407.379-2.219.487-1.461 1.407-2.544 2.76-3.302 1.57-.866 4.168-1.299 7.74-1.299h22.896v2.977h-6.603V24.01h-4.114V9.286c-4.222 0-8.228-.054-12.449-.054-1.624 0-2.761.109-3.41.27-1.137.272-1.895.921-2.382 1.841-.379.704-.541 1.462-.541 2.328h12.341v2.977z" fill="#F95A59" /></g><defs></defs></symbol><clipPath id="icon-logo_clip0"><path fill="#fff" d="M0 0h135.041v30.318H0z" /></clipPath><symbol fill="none" viewBox="0 0 135 27" id="icon-logo-small"><path fill-rule="evenodd" clip-rule="evenodd" d="M29.237 25.79H22.14l-1.003-1.309a41.5 41.5 0 01-3.703 1.232c-1.08.23-2.237.385-3.548.385-4.32 0-7.715-1.078-10.106-3.157C1.234 20.786 0 17.476 0 13.241c0-4.31 1.157-7.621 3.394-9.854C5.71 1.155 9.18 0 13.886 0c4.551 0 8.023 1.232 10.414 3.618 2.083 2.079 3.086 4.773 3.086 8.007 0 2.386-.077 4.157-.309 5.235-.308 1.693-1.08 3.31-2.16 4.773l4.32 4.157zm-8.1-12.78c0-2.31-.463-4.157-1.466-5.62-1.234-1.847-3.24-2.77-5.862-2.77-2.469 0-4.398.692-5.632 2.155-1.234 1.385-1.851 3.464-1.851 6.158 0 3.003.694 5.235 2.16 6.621 1.311 1.232 3.24 1.848 5.785 1.848 2.315 0 4.012-.693 5.169-2.079 1.157-1.463 1.697-3.541 1.697-6.313zM56.006 17.86c0 2.233-.771 4.08-2.237 5.62-1.465 1.54-3.317 2.233-5.631 2.233H30.395V21.17h14.734c1.003 0 1.852-.231 2.469-.693.771-.539 1.157-1.232 1.157-2.156 0-2.155-1.543-3.233-4.552-3.233h-7.405c-2.16 0-4.012-.693-5.632-2.002-1.62-1.308-2.391-3.002-2.391-5.08 0-2.233.771-4.08 2.391-5.467C32.71 1.155 34.792.462 37.415.462h17.049v4.311h-15.12c-.695 0-1.39.308-2.006.847-.772.539-1.08 1.232-1.08 2.001 0 .847.308 1.617 1.003 2.156.694.616 1.465.847 2.391.847h8.177c2.546 0 4.552.693 6.017 2.001 1.466 1.31 2.16 3.08 2.16 5.235zM85.166 13.01c0 4.928-1.388 8.392-4.088 10.547-2.237 1.694-5.478 2.54-9.643 2.54-4.706 0-8.177-1-10.415-2.925-2.468-2.155-3.702-5.62-3.702-10.392 0-3.927 1.08-7.006 3.317-9.162 2.391-2.386 5.94-3.54 10.723-3.54 5.245 0 8.871 1.154 11.031 3.386 1.852 2.002 2.777 5.158 2.777 9.547zm-6.48-.153c0-2.464-.617-4.466-1.774-5.928-1.312-1.617-3.317-2.464-5.863-2.464-2.546 0-4.474.847-5.786 2.618-1.08 1.462-1.62 3.387-1.62 5.697 0 2.694.463 4.696 1.312 6.004 1.234 1.771 3.394 2.695 6.711 2.695 2.777 0 4.706-.847 5.786-2.618.849-1.231 1.234-3.31 1.234-6.004zM110.546 15.166H93.111v10.47h-6.248V10.162c0-.924.154-2.002.54-3.156.694-2.079 2.006-3.619 3.934-4.696C93.574 1.078 97.277.462 102.37.462H135v4.234h-9.411v20.94h-5.863V4.696c-6.017 0-11.726-.077-17.743-.077-2.314 0-3.934.154-4.86.385-1.62.385-2.7 1.309-3.394 2.617-.54 1.001-.772 2.079-.772 3.31h17.589v4.235z" fill="currentColor" /></symbol><symbol fill="none" viewBox="0 0 18 19" id="icon-loupe"><path d="M17 17.318l-4.904-4.904m0 0a6.5 6.5 0 10-9.192-9.192 6.5 6.5 0 009.192 9.192z" stroke="currentColor" stroke-width="1.8" stroke-linecap="round" stroke-linejoin="round" /></symbol><symbol fill="none" viewBox="0 0 13 12" id="icon-next"><path d="M11.563 6H1.437m10.126 0l-4.5 4.5m4.5-4.5l-4.5-4.5" stroke="currentColor" stroke-width="1.8" stroke-linecap="round" stroke-linejoin="round" /></symbol><symbol fill="none" viewBox="0 0 25 24" id="icon-profile"><path fill-rule="evenodd" clip-rule="evenodd" d="M12.46 13c-4.075 0-7.446 3.059-7.939 7.002-.068.548.386.998.939.998.552 0 .99-.451 1.082-.996A6.01 6.01 0 0112.46 15a6.01 6.01 0 015.917 5.004c.091.545.53.996 1.083.996.552 0 1.006-.45.938-.998C19.905 16.059 16.535 13 12.46 13z" fill="currentColor" /><path d="M12.46 11c2.206 0 4-1.794 4-4s-1.794-4-4-4-4 1.794-4 4 1.794 4 4 4" stroke="currentColor" stroke-width="2" /></symbol><symbol fill="none" viewBox="0 0 24 36" id="icon-profile-no-avatar"><path d="M23.834 31.498v3.452a.584.584 0 01-1.169 0v-3.452a4.86 4.86 0 00-4.863-4.863 3.589 3.589 0 01-3.087-1.734.585.585 0 01.998-.608 2.428 2.428 0 002.09 1.173 6.028 6.028 0 016.031 6.032zM13.636 25.64a.584.584 0 01-.446.695 5.593 5.593 0 01-4.348-.85c-1.233 1.32-2.862 1.15-2.644 1.15a4.86 4.86 0 00-4.863 4.863v3.452a.584.584 0 01-1.169 0v-3.452a6.028 6.028 0 016.032-6.032A2.436 2.436 0 008.64 23.03v-.154a7.829 7.829 0 01-4.45-6.767 2.385 2.385 0 01-1.832-2.31v-3.03c-.032-1.483.188-5.197 2.896-7.807 3.344-3.223 8.706-3.019 12.65-1.12a.586.586 0 01.123.973 7.887 7.887 0 014.826 3.473c.058.09.162.232.135.459a.59.59 0 01-.168.37 3.816 3.816 0 00-1.104 2.696v3.986a.584.584 0 01-1.169 0V9.813c0-1.172.4-2.284 1.135-3.177a6.75 6.75 0 00-4.845-2.845l-1.027-.11c-.6-.064-.719-.891-.16-1.121l.467-.192c-6.085-2.121-12.59.235-12.59 8.395v3.036c0 .464.266.867.657 1.07v-3.79a4.095 4.095 0 014.09-4.09h7.452a4.095 4.095 0 014.09 4.09v4.785c0 5.083-4.966 8.943-10.02 7.455-.033.417-.136.82-.306 1.194a4.426 4.426 0 003.45.68.584.584 0 01.696.447zM12 22.467a6.655 6.655 0 006.648-6.647v-4.74a2.925 2.925 0 00-2.922-2.922H8.275a2.925 2.925 0 00-2.922 2.921v4.74A6.655 6.655 0 0012 22.468zm5.917 10.072h-1.753a.584.584 0 000 1.169h1.753a.584.584 0 000-1.169z" fill="currentColor" /></symbol><symbol fill="none" viewBox="0 0 20 20" id="icon-question"><path fill-rule="evenodd" clip-rule="evenodd" d="M6.5 7.5C6.5 5.57 8.07 4 10 4s3.5 1.57 3.5 3.5c0 1.58-1.06 2.903-2.5 3.337V12a1 1 0 11-2 0v-2a1 1 0 011-1c.827 0 1.5-.673 1.5-1.5S10.827 6 10 6s-1.5.673-1.5 1.5a1 1 0 11-2 0zM9 15a1 1 0 112 0 1 1 0 11-2 0zm1 3c-4.411 0-8-3.589-8-8s3.589-8 8-8 8 3.589 8 8-3.589 8-8 8zm0-18C4.486 0 0 4.486 0 10s4.486 10 10 10 10-4.486 10-10S15.514 0 10 0z" fill="currentColor" /></symbol><symbol fill="none" viewBox="0 0 21 21" id="icon-star"><path d="M19.924 6.718l-5.734-.832L11.627.715c-.46-.922-1.79-.934-2.254 0L6.81 5.885l-5.734.833C.047 6.866-.365 8.128.38 8.85l4.149 4.023-.982 5.683c-.176 1.027.911 1.797 1.822 1.316l5.13-2.683 5.13 2.683c.91.477 1.998-.289 1.822-1.316l-.982-5.683 4.15-4.023c.745-.722.333-1.984-.696-2.132zm-5.475 5.499l.93 5.406-4.879-2.55-4.88 2.55.931-5.406-3.949-3.828L8.06 7.6 10.5 2.68l2.441 4.92 5.457.79-3.95 3.827z" fill="currentColor" /></symbol><symbol fill="none" viewBox="0 0 24 18" id="icon-youtube"><path fill-rule="evenodd" clip-rule="evenodd" d="M4.263 17.153c3.499.24 11.302.24 14.805 0 3.79-.26 4.235-2.105 4.265-8.153-.03-6.037-.47-7.893-4.265-8.153-3.501-.24-11.306-.24-14.805 0C.475 1.107.028 2.952 0 9c.028 6.037.47 7.893 4.263 8.153zm12.265-8.16L8.333 5.097v7.806l8.195-3.91z" fill="currentColor" /></symbol></defs></svg>